inDegrees=no
num_controls=7
num_derivatives=13
num_iterations=112
num_multipliers=7
num_parameters=0
num_slacks=7
num_states=26
objective=0.444806
objective_accelerations=0.058141
objective_balance=0.003653
objective_effort=0.023500
objective_height=0.354013
objective_ligament=0.005500
solver_duration=1629.464433
status=Solve_Succeeded
success=true
DataType=double
version=3
OpenSimVersion=4.5
endheader
time	/jointset/ground_pelvis/pelvis_tilt/value	/jointset/ground_pelvis/pelvis_tx/value	/jointset/ground_pelvis/pelvis_ty/value	/jointset/hip_l/hip_flexion_l/value	/jointset/hip_l/hip_adduction_l/value	/jointset/hip_l/hip_rotation_l/value	/jointset/back/lumbar_extension/value	/jointset/patellofemoral_l/patellar_flexion_l/value	/jointset/knee_l/knee_flexion_l/value	/jointset/knee_l/knee_adduction_l/value	/jointset/knee_l/knee_rotation_l/value	/jointset/ankle_l/ankle_angle_l/value	/jointset/subtalar_l/subtalar_angle_l/value	/jointset/ground_pelvis/pelvis_tilt/speed	/jointset/ground_pelvis/pelvis_tx/speed	/jointset/ground_pelvis/pelvis_ty/speed	/jointset/hip_l/hip_flexion_l/speed	/jointset/hip_l/hip_adduction_l/speed	/jointset/hip_l/hip_rotation_l/speed	/jointset/back/lumbar_extension/speed	/jointset/patellofemoral_l/patellar_flexion_l/speed	/jointset/knee_l/knee_flexion_l/speed	/jointset/knee_l/knee_adduction_l/speed	/jointset/knee_l/knee_rotation_l/speed	/jointset/ankle_l/ankle_angle_l/speed	/jointset/subtalar_l/subtalar_angle_l/speed	/forceset/tau_hip_flexion_l	/forceset/tau_hip_adduction_l	/forceset/tau_hip_rotation_l	/forceset/tau_knee_flexion_l	/forceset/tau_ankle_angle_l	/forceset/tau_subtalar_angle_l	/forceset/tau_lumbar_extension	lambda_cid13_p0	lambda_cid13_p1	lambda_cid13_p2	lambda_cid13_p3	lambda_cid13_p4	lambda_cid13_p5	lambda_cid14_p0	/jointset/ground_pelvis/pelvis_tilt/accel	/jointset/ground_pelvis/pelvis_tx/accel	/jointset/ground_pelvis/pelvis_ty/accel	/jointset/hip_l/hip_flexion_l/accel	/jointset/hip_l/hip_adduction_l/accel	/jointset/hip_l/hip_rotation_l/accel	/jointset/back/lumbar_extension/accel	/jointset/patellofemoral_l/patellar_flexion_l/accel	/jointset/knee_l/knee_flexion_l/accel	/jointset/knee_l/knee_adduction_l/accel	/jointset/knee_l/knee_rotation_l/accel	/jointset/ankle_l/ankle_angle_l/accel	/jointset/subtalar_l/subtalar_angle_l/accel	gamma_cid13_p0	gamma_cid13_p1	gamma_cid13_p2	gamma_cid13_p3	gamma_cid13_p4	gamma_cid13_p5	gamma_cid14_p0
0.5	-0.3530237836743056	-0.04375084164719022	0.7567133051900798	1.122885109213243	-0.4370073109941877	-0.2204683751767911	-0.254636606607788	0.8099405213228914	0.8099405213228488	-0.1285481142269978	-0.1588629178575764	0.09993445597586409	-0.03709888964776176	-0.8000066934524304	-0.2289617949697991	-0.54402700301142	2.538728845892066	-0.2041573097461682	0.751979943756974	-0.1139678316922551	1.994752172055624	1.994752172055635	0.1282466732307677	-0.08782637773810319	0.4289020544429398	-0.01586995420042424	-0.1762497248250641	0.01853266142813352	-0.01080562014697796	-0.2145792516261688	0.06697524440478407	0.0470418275949839	0.1720764656931222	-11.23854700032608	-21.54621141645821	6.621503892935766	-6.329672384734065	-522.1316380037019	-64.05264349598377	-25.02009122050886	0.8507761678381042	0.6255076815994569	-0.4635639613775505	-1.413215005629483	0.7589097570621829	-0.2103264524982656	1.114097176233844	-1.28789372597655	-1.28789372597656	0.09515423774222348	0.185522362147735	-0.5203381088435363	0.5528226661567789	-5.493041260750354e-07	-4.327119200766634e-07	2.74094048362633e-06	1.422108460184167e-07	-6.247776834216472e-07	1.106188735966546e-07	-4.553731732197322e-07
0.51	-0.360979374626131	-0.04600894044262836	0.7512510428681182	1.148196874256127	-0.4390120930038954	-0.2129579689114797	-0.2557219048763166	0.8298205834088997	0.8298205834088278	-0.1272651628129179	-0.1597314687919284	0.1041962391828512	-0.03723187378937621	-0.7909956384999859	-0.2226414021551614	-0.5483095352451974	2.523282285421016	-0.196784176290974	0.7500006122934785	-0.103144316687546	1.980994740178624	1.980994740178618	0.1283372797199306	-0.08587639858404256	0.4233780858205377	-0.01074083877217379	-0.181853431587683	0.0191753342106842	-0.01089480267864199	-0.2172850079226049	0.06662223514500333	0.04741731603879348	0.1763224539682073	-11.55880659853488	-21.63288707775099	6.612106775382802	-6.233890526236917	-525.7907899132854	-63.68381168214894	-24.10135068463341	0.9435807808782263	0.6378193488132495	-0.3933309745272375	-1.661738078531901	0.7284489356355125	-0.2072319382435403	1.058604461480272	-1.4594032819158	-1.459403281918324	-0.03489738539852409	0.2014037819722301	-0.5798943975730032	0.4906031559328499	-5.349352240203594e-07	-3.374419236413951e-07	2.775936006892448e-06	1.631347498785036e-07	-5.993152450524658e-07	1.83598794223918e-07	-4.473846621542423e-07
0.52	-0.3688413929040464	-0.04820333245643666	0.7457494085997889	1.173343901392161	-0.4409427569198739	-0.2054704550497971	-0.25670054283502	0.8495551241034672	0.8495551241033659	-0.1259814875819258	-0.1605801863167532	0.1084004890718873	-0.03731403734175343	-0.7812921586703149	-0.216220438643831	-0.5519013922849485	2.505781264522401	-0.1893336910002803	0.7474014630312488	-0.09263576972720255	1.965647893767461	1.965647893767438	0.1283914366130194	-0.08385969583250137	0.4173953908527572	-0.005705836352976459	-0.187457138350301	0.01981800699323307	-0.01098398521029442	-0.2199907642190422	0.06626922588522154	0.04779280448260025	0.1805684422432941	-11.88274304975992	-21.71964052853011	6.603548040014068	-6.169132056606685	-529.5339696584288	-63.37451613432783	-23.18399141544991	0.9892611432834603	0.6456218209379848	-0.3254289225722949	-1.824107091142587	0.7743801241620695	-0.3342900122451223	1.051103567360721	-1.60577663280928	-1.605776632809284	0.08786431852739068	0.1988670816438436	-0.6120833779192091	0.5340000643461497	-5.202092034273574e-07	-2.291141168213715e-07	2.825000958297389e-06	1.899448110955328e-07	-5.773185029126894e-07	2.582428396802135e-07	-4.382440828675629e-07
0.53	-0.3766031375880561	-0.05033306132880062	0.7402153299731647	1.198305994632003	-0.4427985117265696	-0.1980116468847387	-0.2575756672996327	0.8691284462331287	0.8691284462331131	-0.1246975308695075	-0.1614081755474919	0.1125427641521048	-0.03734623314190547	-0.7709498925150036	-0.2097127204125152	-0.5547946992463514	2.486304971839622	-0.181808994119411	0.744257008107263	-0.08245531710547299	1.948763791206329	1.948763791206307	0.1283944599950023	-0.08173411004677821	0.4109937853252633	-0.0007490359375773081	-0.1928397506412272	0.0201382581017233	-0.01102712702493424	-0.222950892338022	0.06623899433834413	0.04802631922436849	0.1846123438679514	-12.10585559452916	-21.75962153520603	6.584370339186187	-6.119335671398321	-533.2465917826486	-63.01456704539373	-22.26962341000961	1.072671948226001	0.6552799420615666	-0.2534496668289746	-2.059333832073975	0.7424109966998719	-0.3203681876154331	0.9915870230561152	-1.767551522960872	-1.767551522960647	-0.04422949377903066	0.2205843598190382	-0.6640548326608222	0.4738579011404773	-5.047482681285653e-07	-1.390197383206569e-07	2.850359035462344e-06	2.137248278531163e-07	-5.572194085981199e-07	3.293271455266482e-07	-4.285366416923122e-07
0.54	-0.3842582670911991	-0.05239732639528477	0.7346558846601458	1.223063336249972	-0.4445788402591266	-0.190587452259948	-0.2583509730553326	0.8885253624461409	0.8885253624462089	-0.1234136940916334	-0.1622146729138144	0.116619052038548	-0.03732939336370279	-0.7599691224968491	-0.2031276774678729	-0.5569747295639381	2.464830940147707	-0.1742484361725215	0.7404787549776726	-0.0726720279446607	1.930366710437367	1.930366710437347	0.1283674497044745	-0.07956132294975547	0.404197952097916	0.004101279317969162	-0.1982223629321466	0.02045850921021379	-0.01107026883959744	-0.2259110204570004	0.06620876279146617	0.0482598339661371	0.1886562454926155	-12.33309646586679	-21.79969215552105	6.566136792905131	-6.099466726724063	-537.0498982381682	-62.71384700582798	-21.36151667972891	1.116961915852112	0.6610867636032601	-0.1827735938090167	-2.223654892969675	0.7815523373660704	-0.4610496533660665	0.9716708751772665	-1.908372274375301	-1.908372274375324	0.08185758402524786	0.208307343903755	-0.6909289178898586	0.5127030323756112	-4.884742357084736e-07	-6.909851455619931e-08	2.849488230489441e-06	2.341524549959936e-07	-5.392198395369709e-07	3.964730160600454e-07	-4.182020341722591e-07
0.55	-0.3918005556715898	-0.05439545149799948	0.7290782133057284	1.247596270694185	-0.44628337052638	-0.1832039429416501	-0.2590304583221774	0.9077309063889536	0.9077309063890286	-0.1221303296180747	-0.1629990794741817	0.1206254664330029	-0.03726454853702871	-0.7483848672888017	-0.1964931827683614	-0.5584385831744874	2.441435061154176	-0.1666565550487009	0.736123713320466	-0.06330583925334685	1.910503227499315	1.910503227499301	0.1282957482256897	-0.07731661493764828	0.3970233161954139	0.008845662866216773	-0.2035471686550734	0.02062768818255795	-0.01103790650616175	-0.2287272197482067	0.0658901658294694	0.04841223399395067	0.1926004015870647	-12.65035841608379	-21.78395370803634	6.533499557796614	-5.915640105634413	-540.7521288892541	-62.37265932325528	-20.46430918557674	1.194648056151889	0.6653039280874981	-0.1101534032994033	-2.445766936616381	0.7478030302783527	-0.4379887552666923	0.9069707917478249	-2.061081384387246	-2.061081384386271	-0.05306229242701489	0.2336333208537621	-0.7399438056285647	0.4516744323556061	-4.661162806128113e-07	1.412276692700595e-08	2.836966128419725e-06	2.548381691438952e-07	-5.154112210203537e-07	4.602262299523227e-07	-4.031222298597923e-07
0.5600000000000001	-0.3992239035533265	-0.05632709703272658	0.7234895109834811	1.27188560384165	-0.4479120225763176	-0.1758670355065981	-0.2596187061169808	0.9267306664862114	0.9267306664862944	-0.1208479578150216	-0.1637608227962328	0.124558291892593	-0.03715298619161093	-0.7361809827659191	-0.1898317638703535	-0.5591809231298955	2.416110680797784	-0.1590727927093482	0.7311583783285092	-0.05442453353645674	1.88920994132658	1.889209941326573	0.1281689156030376	-0.07502867528595793	0.389480165124985	0.01344478306671533	-0.2088719743779936	0.02079686715490149	-0.0110055441726922	-0.2315434190394152	0.06557156886747122	0.04856463402176232	0.1965445576815209	-12.97056258012114	-21.76824001563516	6.501484820827834	-5.766424153799311	-544.5292944416619	-62.08649399171515	-19.58025998348116	1.240887778819144	0.6664716033025327	-0.03847086278083646	-2.609355165542017	0.7799285804724725	-0.5831083203161304	0.8746942802925152	-2.194332921311751	-2.194332921311752	0.07083135525177608	0.2169536718203885	-0.7646319514751786	0.4836503628257995	-4.364576183064645e-07	1.133041176727079e-07	2.810462469833834e-06	2.758335876978258e-07	-4.846317431571748e-07	5.199082558752563e-07	-3.823481893964291e-07
0.5700000000000001	-0.4065223770817791	-0.05819206386709251	0.7178969922931079	1.295912453009243	-0.4494647725785568	-0.1685825260745929	-0.2601205829408343	0.9455104854175979	0.9455104854177254	-0.119567067364537	-0.164499212925866	0.1284139493392928	-0.03699599214370008	-0.723419897033045	-0.1831630529720159	-0.5592004171418935	2.388949878914676	-0.1514812738477293	0.7256481784494447	-0.04605029682559087	1.866523690256422	1.866523690256418	0.127995052106716	-0.0726435233619688	0.3815960501038355	0.01792902546409472	-0.2138926433602359	0.02079202497758281	-0.01091237014197286	-0.2345859806456914	0.06555807996017991	0.04848841831649902	0.2002115360140744	-13.19238953157176	-21.66419411322311	6.448224372000603	-5.596106916296306	-548.1854666447731	-61.66607926094373	-18.71110575659116	1.30772827153603	0.6669108796792518	0.03457755579671017	-2.815908770443649	0.7477739621516816	-0.549584261653371	0.80386852777478	-2.340220284555172	-2.340220284554668	-0.06351686141715532	0.25073304409132	-0.8085514371399611	0.426706391119779	-4.064299938021058e-07	1.847086188643547e-07	2.750803430280155e-06	2.878856885215473e-07	-4.530702374413648e-07	5.699631850628228e-07	-3.619121669692613e-07
